<?xml version="1.0" encoding="UTF-8"?>
<svg version="1.1" xmlns="http://www.w3.org/2000/svg" width="1254" height="1254">
<path d="M0 0 C413.82 0 827.64 0 1254 0 C1254 413.82 1254 827.64 1254 1254 C840.18 1254 426.36 1254 0 1254 C0 840.18 0 426.36 0 0 Z " fill="#000000" transform="translate(0,0)"/>
<path d="M0 0 C28.38 0 56.76 0 86 0 C82.87363071 9.37910787 78.46227459 18.15843933 74.15545559 27.04503155 C72.64598501 30.16098252 71.1553396 33.28299529 69.70825195 36.4284668 C62.87480518 51.24919856 57.0772053 62.68213109 41.97409058 70.0038147 C38.94344697 71.53316834 36.2420805 73.40927017 33.44140625 75.328125 C31.96704102 76.31039062 31.96704102 76.31039062 30.46289062 77.3125 C29.50576172 77.951875 28.54863281 78.59125 27.5625 79.25 C26.57830078 79.90484375 25.59410156 80.5596875 24.58007812 81.234375 C20.11308449 84.21434163 15.67513069 87.22430981 11.28442383 90.31567383 C6.19076894 93.88796119 1.02122251 97.33249606 -4.1796875 100.74609375 C-5.11370392 101.36090103 -6.04772034 101.97570831 -7.01004028 102.60914612 C-9.96412928 104.55329925 -12.91950253 106.49548885 -15.875 108.4375 C-19.76859941 110.99813529 -23.66171595 113.55950403 -27.5546875 116.12109375 C-28.48215286 116.73129364 -29.40961823 117.34149353 -30.3651886 117.97018433 C-42.08255719 125.66974868 -42.08255719 125.66974868 -53.69140625 133.53125 C-54.63886719 134.1809375 -55.58632813 134.830625 -56.5625 135.5 C-58.01849609 136.50546875 -58.01849609 136.50546875 -59.50390625 137.53125 C-62 139 -62 139 -65 139 C-63.77083333 137.77083333 -62.54166667 136.54166667 -61.3125 135.3125 C-60.57515625 134.57386719 -59.8378125 133.83523438 -59.078125 133.07421875 C-57.58253842 131.58144342 -56.07595895 130.09965231 -54.5625 128.625 C-52.34769797 126.35617841 -50.26344099 124.03423547 -48.17016602 121.65478516 C-42.86739992 115.75254706 -37.23421454 110.22422935 -31.55158806 104.6903801 C-28.35024698 101.56712586 -25.1679604 98.42451217 -21.98242188 95.28515625 C-17.96231296 91.32479102 -13.93695664 87.37032217 -9.8894043 83.43798828 C-6.58670387 80.22829254 -3.3048047 76.99852318 -0.03512764 73.75520706 C1.19860638 72.53851949 2.43939998 71.32893977 3.68788338 70.12739182 C12.56374336 61.57540812 18.02297346 53.24522538 23 42 C24.04654618 39.93973464 25.10565864 37.88570287 26.1875 35.84375 C26.61417969 35.03099609 27.04085937 34.21824219 27.48046875 33.38085938 C27.98191406 32.43017578 28.48335937 31.47949219 29 30.5 C30.65 27.365 32.3 24.23 34 21 C19.48 21 4.96 21 -10 21 C-8 15 -8 15 0 0 Z " fill="#B2F710" transform="translate(627,596)"/>
<path d="M0 0 C0 0.99 0 1.98 0 3 C-1.40312604 4.19779052 -2.8153394 5.38619836 -4.26586914 6.52612305 C-6.00077264 8.00065668 -7.35872194 9.51675939 -8.80859375 11.26953125 C-15.24945954 18.736918 -22.4616531 25.51420105 -29.46630859 32.44580078 C-37.72348471 40.480946 -37.72348471 40.480946 -45.4609375 49.00390625 C-48.71250583 52.84937302 -52.34778153 56.23493795 -56.0078125 59.68359375 C-72.23388196 75.06478782 -84.1119952 88.28605226 -93 109 C-94.98 112.63 -96.96 116.26 -99 120 C-84.48 120 -69.96 120 -55 120 C-57 126 -57 126 -65 140 C-93.05 140 -121.1 140 -150 140 C-148.87571805 133.25430828 -148.87571805 133.25430828 -147.21484375 130.2578125 C-146.85342285 129.59289795 -146.49200195 128.9279834 -146.11962891 128.24291992 C-145.72952637 127.54400635 -145.33942383 126.84509277 -144.9375 126.125 C-144.10899898 124.60377733 -143.28221181 123.08162015 -142.45703125 121.55859375 C-142.04146973 120.79401855 -141.6259082 120.02944336 -141.19775391 119.24169922 C-139.76429784 116.55886318 -138.4073038 113.84493365 -137.07226562 111.11206055 C-136.09752326 109.13167547 -135.08592002 107.17265674 -134.07421875 105.2109375 C-132.58521151 102.28835373 -131.33458002 99.34457635 -130.14453125 96.2890625 C-122.95895759 79.36300733 -108.76796845 71.54671742 -93.69580078 62.29101562 C-88.36428392 59.00981519 -83.18853859 55.50182368 -78 52 C-76.00071543 50.66559415 -74.00079074 49.33214646 -72 48 C-71.01 47.34 -70.02 46.68 -69 46 C-46 30.66666667 -23 15.33333333 0 0 Z " fill="#B4F80F" transform="translate(692,513)"/>
<path d="M0 0 C0.66 0.33 1.32 0.66 2 1 C1.34 2.98 0.68 4.96 0 7 C0.99 7.33 1.98 7.66 3 8 C3.99 7.34 4.98 6.68 6 6 C8.1875 6.375 8.1875 6.375 10 7 C8.6796875 7.88020833 7.359375 8.76041667 6.0390625 9.640625 C5.18296387 10.21151855 4.32686523 10.78241211 3.44482422 11.37060547 C1.55382241 12.6309459 -0.33778659 13.89037576 -2.22998047 15.14892578 C-6.93340403 18.27901826 -11.62797946 21.42014955 -16.296875 24.6015625 C-17.11236816 25.15424805 -17.92786133 25.70693359 -18.76806641 26.27636719 C-20.31579842 27.3261444 -21.85988165 28.38132541 -23.39990234 29.44238281 C-24.0955127 29.91256836 -24.79112305 30.38275391 -25.5078125 30.8671875 C-26.11254395 31.28081543 -26.71727539 31.69444336 -27.34033203 32.12060547 C-29 33 -29 33 -32 33 C-30.77083333 31.77083333 -29.54166667 30.54166667 -28.3125 29.3125 C-27.57515625 28.57386719 -26.8378125 27.83523438 -26.078125 27.07421875 C-24.58253842 25.58144342 -23.07595895 24.09965231 -21.5625 22.625 C-19.23657152 20.24234156 -17.02514799 17.79979485 -14.8125 15.3125 C-10.06881244 10.00180602 -5.0822014 4.98671119 0 0 Z " fill="#AEF114" transform="translate(594,702)"/>
<path d="M0 0 C0 0.99 0 1.98 0 3 C-1.39351588 4.18958673 -2.79583046 5.37024833 -4.23828125 6.5 C-6.11954548 8.10178595 -7.65165891 9.80441882 -9.25 11.6875 C-13.54950945 16.74063134 -18.26880828 21.35448378 -23 26 C-24.32 25.34 -25.64 24.68 -27 24 C-26.34 22.68 -25.68 21.36 -25 20 C-26.65 20.33 -28.3 20.66 -30 21 C-27.48530444 18.25299144 -24.66231646 16.32716428 -21.5625 14.27734375 C-20.50289062 13.57416016 -19.44328125 12.87097656 -18.3515625 12.14648438 C-17.23442968 11.4100733 -16.11724161 10.67374603 -15 9.9375 C-13.8825998 9.19758674 -12.76541005 8.45735556 -11.6484375 7.71679688 C-9.59869351 6.3590285 -7.54800714 5.00268101 -5.49609375 3.64819336 C-3.6611338 2.43655265 -1.82959351 1.21972901 0 0 Z " fill="#ACE908" transform="translate(692,513)"/>
<path d="M0 0 C1.24359926 3.73079778 1.24851969 5.25444093 0 9 C-2.41135887 11.37368139 -5.1827437 13.14161538 -8 15 C-9.83542033 16.28869938 -11.66875964 17.58036777 -13.5 18.875 C-14.9990592 19.91802011 -16.49871997 20.960179 -18 22 C-18.66 21.67 -19.32 21.34 -20 21 C-18.77083333 19.77083333 -17.54166667 18.54166667 -16.3125 17.3125 C-15.57773437 16.57644531 -14.84296875 15.84039063 -14.0859375 15.08203125 C-12.54604506 13.5450225 -10.99482582 12.01934226 -9.4375 10.5 C-6.14647096 7.1245856 -3.07528444 3.57158395 0 0 Z " fill="#A6E909" transform="translate(582,714)"/>
<path d="M0 0 C0 0.99 0 1.98 0 3 C-1.40086239 4.2007392 -2.80979496 5.39387608 -4.265625 6.52734375 C-7.20593086 9.02395481 -9.57356314 12.01427805 -12 15 C-12.99 14.67 -13.98 14.34 -15 14 C-15.33 13.01 -15.66 12.02 -16 11 C-10.72 7.37 -5.44 3.74 0 0 Z " fill="#A3D906" transform="translate(692,513)"/>
<path d="M0 0 C0.55171875 0.22300781 1.1034375 0.44601562 1.671875 0.67578125 C-0.09349596 1.85069707 -1.86562213 3.01546809 -3.640625 4.17578125 C-4.62675781 4.82546875 -5.61289062 5.47515625 -6.62890625 6.14453125 C-9.328125 7.67578125 -9.328125 7.67578125 -12.328125 7.67578125 C-12.328125 7.01578125 -12.328125 6.35578125 -12.328125 5.67578125 C-10.28125 4.1328125 -10.28125 4.1328125 -7.578125 2.48828125 C-6.69640625 1.93785156 -5.8146875 1.38742187 -4.90625 0.8203125 C-2.328125 -0.32421875 -2.328125 -0.32421875 0 0 Z " fill="#ABE80C" transform="translate(679.328125,657.32421875)"/>
<path d="M0 0 C0.99 0.33 1.98 0.66 3 1 C4.40664926 1.14492123 5.8181133 1.24628931 7.23046875 1.31640625 C8.43413086 1.37924805 8.43413086 1.37924805 9.66210938 1.44335938 C10.49548828 1.48267578 11.32886719 1.52199219 12.1875 1.5625 C13.03248047 1.60568359 13.87746094 1.64886719 14.74804688 1.69335938 C16.83184433 1.79931518 18.91590103 1.9001502 21 2 C21 2.33 21 2.66 21 3 C13.74 3 6.48 3 -1 3 C-0.67 2.01 -0.34 1.02 0 0 Z " fill="#C1F60E" transform="translate(543,650)"/>
<path d="M0 0 C1 3 1 3 -0.21484375 5.91796875 C-0.78332031 6.99691406 -1.35179687 8.07585938 -1.9375 9.1875 C-2.50339844 10.27417969 -3.06929687 11.36085938 -3.65234375 12.48046875 C-4.09707031 13.31191406 -4.54179688 14.14335938 -5 15 C-5.66 15 -6.32 15 -7 15 C-5.45454854 9.52067211 -2.84456788 4.88570819 0 0 Z " fill="#A2E213" transform="translate(569,597)"/>
<path d="M0 0 C2.64 0 5.28 0 8 0 C5.11912454 2.40072955 2.43595166 4.47291037 -1 6 C-0.67 4.02 -0.34 2.04 0 0 Z " fill="#B6F81F" transform="translate(627,598)"/>
<path d="M0 0 C1.32 0.33 2.64 0.66 4 1 C-0.455 4.465 -0.455 4.465 -5 8 C-5.66 7.67 -6.32 7.34 -7 7 C-5.93283928 5.79794536 -4.84561663 4.61367667 -3.75 3.4375 C-3.14671875 2.77621094 -2.5434375 2.11492188 -1.921875 1.43359375 C-1.28765625 0.96050781 -0.6534375 0.48742187 0 0 Z " fill="#B0E306" transform="translate(569,728)"/>
<path d="M0 0 C-1.28524261 0.86380259 -2.57842419 1.71580369 -3.875 2.5625 C-4.59429688 3.03816406 -5.31359375 3.51382813 -6.0546875 4.00390625 C-6.69664062 4.33261719 -7.33859375 4.66132812 -8 5 C-8.66 4.67 -9.32 4.34 -10 4 C-10 3.34 -10 2.68 -10 2 C-4.10714286 -1.34821429 -4.10714286 -1.34821429 0 0 Z " fill="#AAE90A" transform="translate(604,709)"/>
<path d="M0 0 C0.66 0.33 1.32 0.66 2 1 C-0.25 3.5625 -0.25 3.5625 -3 6 C-4.32 5.67 -5.64 5.34 -7 5 C-4.69 3.35 -2.38 1.7 0 0 Z " fill="#1A2702" transform="translate(595,714)"/>
<path d="M0 0 C0.99 0 1.98 0 3 0 C2.33333333 1.33333333 1.66666667 2.66666667 1 4 C0.5359375 5.0828125 0.5359375 5.0828125 0.0625 6.1875 C-1 8 -1 8 -4 9 C-2.80100302 5.9168649 -1.52299523 2.93720508 0 0 Z " fill="#A6E415" transform="translate(656,627)"/>
<path d="M0 0 C0.99 0.33 1.98 0.66 3 1 C1.02 3.31 -0.96 5.62 -3 8 C-3.33 7.01 -3.66 6.02 -4 5 C-2.0625 2.3125 -2.0625 2.3125 0 0 Z " fill="#A0D904" transform="translate(642,562)"/>
<path d="M0 0 C0.99 0.33 1.98 0.66 3 1 C0.63707344 3.52588702 -0.66462511 4.88820837 -4 6 C-4 5.01 -4 4.02 -4 3 C-2.1875 1.25 -2.1875 1.25 0 0 Z " fill="#0F1902" transform="translate(683,516)"/>
<path d="M0 0 C1.32 0 2.64 0 4 0 C4 0.66 4 1.32 4 2 C4.99 2.33 5.98 2.66 7 3 C7 3.33 7 3.66 7 4 C5.02 4 3.04 4 1 4 C0.67 2.68 0.34 1.36 0 0 Z " fill="#B2F31A" transform="translate(619,611)"/>
<path d="M0 0 C0.66 0.33 1.32 0.66 2 1 C0.68 3.64 -0.64 6.28 -2 9 C-2.66 8.67 -3.32 8.34 -4 8 C-3.34 6.02 -2.68 4.04 -2 2 C-1.34 2 -0.68 2 0 2 C0 1.34 0 0.68 0 0 Z " fill="#B2F008" transform="translate(707,605)"/>
<path d="M0 0 C0.99 0.33 1.98 0.66 3 1 C-0.32307692 4.93846154 -0.32307692 4.93846154 -3.75 5.25 C-4.4925 5.1675 -5.235 5.085 -6 5 C-5.195625 4.360625 -4.39125 3.72125 -3.5625 3.0625 C-1.7249496 1.59396498 -1.7249496 1.59396498 0 0 Z " fill="#9EDC0A" transform="translate(651,540)"/>
</svg>
